<svg width="112" height="75" viewBox="0 0 112 75" fill="none" xmlns="http://www.w3.org/2000/svg">
<path d="M8.32129 6.93457C14.8913 0.0222817 24.4441 0.364086 27.4453 0.592773L27.9561 0.634766C29.1467 0.736491 35.396 1.35931 41.6729 5.79004L42.2803 6.23047C47.9605 10.4628 50.5232 15.6662 52.7725 20.375C53.7907 22.5083 54.1304 23.5829 54.8203 26.0791C55.5143 28.59 56.5555 32.5135 58.9766 40.3145C61.3769 48.055 62.3992 50.7893 63.8916 53.9414C65.642 57.6376 67.5206 61.5283 71.2627 65.6074V65.6084C73.8356 68.4135 76.5732 71.4067 81.3428 73.0537C86.3994 74.7993 90.8658 74.0515 92.9395 73.5479H92.9404C94.9247 73.0623 100.359 71.7475 103.875 66.71L103.876 66.7109C104.664 65.5875 107.183 61.9873 106.552 57.4102L106.51 57.1367C106.274 55.7298 105.61 53.6757 103.183 50.7158C100.044 46.8883 96.6187 44.7993 90.1836 41.3594C84.826 38.4957 82.0336 37.1868 80.209 36.2891C78.402 35.4 77.5636 34.9249 76.0732 33.7168C72.7561 31.0274 69.0839 28.0321 67.709 22.7246C65.9894 16.0807 69.1035 10.5112 69.6689 9.54102V9.54004C70.1011 8.79685 73.0316 3.93408 78.9004 1.77441C81.6524 0.763491 84.1088 0.692194 85.5508 0.652344H85.5518C85.6247 0.650278 85.7083 0.649034 85.8018 0.647461C84.8482 0.749759 84.0067 0.936737 83.3047 1.11914L82.6211 1.30469C80.3395 1.94156 76.809 2.9076 74.4873 6.1084C72.4925 8.85602 72.2703 12.0264 72.543 14.5049C72.7477 16.3651 73.2345 17.8701 73.498 18.5811L73.668 19.0107C75.2682 22.6695 78.0083 24.4462 82.9658 27.5996C85.8076 29.4076 87.6295 30.2164 89.5869 31.0508C91.5284 31.8784 93.6014 32.7313 96.9863 34.6367C102.429 37.6996 105.177 39.2897 107.445 42.2803L107.663 42.5742C108.576 43.8325 111.543 48.0433 111.5 54.1084C111.453 60.912 107.661 65.4553 106.444 66.8652C102.702 71.2045 98.1727 72.8176 95.7256 73.4922L94.8125 73.7295C86.2646 75.8427 79.3417 72.4531 77.8096 71.6533C72.0338 68.6409 69.2257 64.1317 66.3047 59.4258C63.6324 55.1194 62.1843 51.1095 59.9736 44.1396L58.9736 40.9619C57.0095 34.6933 56.1344 30.9944 55.3193 28.0234C54.5014 25.0423 53.7472 22.8117 52.0342 19.5391C49.9072 15.472 47.9191 11.6711 43.7705 8.04395H43.7695C43.474 7.78613 40.5368 5.28945 36.126 3.24902C31.718 1.20995 25.7862 -0.397799 19.5371 1.20117C17.4199 1.74317 13.4619 2.80505 10.7266 6.48438C9.84902 7.66637 7.98299 10.6121 8.22949 14.5098C8.49738 18.7295 11.0797 21.5083 12.6807 23.1904C15.5324 26.1912 18.0451 27.0715 23.7559 29.7451C31.6723 33.4505 35.5428 35.266 38.1367 37.375C40.6461 39.416 45.3159 43.224 46.8818 49.7998C47.2152 51.2003 48.2999 56.0552 46.0469 61.3184C44.1694 65.7023 40.9759 68.052 38.6357 69.7676H38.6348C37.2084 70.814 34.4776 72.7735 30.3701 73.8223C25.4366 75.082 21.4109 74.2861 19.1855 73.8174C17.2364 73.4072 11.7763 72.184 6.86133 67.7461L6.3877 67.3066C5.0454 66.0277 2.89454 63.9231 1.62305 60.4727H1.62207C1.34073 59.712 0.788639 58.2102 0.581055 56.582C0.371687 54.9398 0.528503 53.2873 1.53223 52.124L1.53125 52.123C1.58461 52.063 1.91277 51.7023 2.43066 51.3652C2.96909 51.0149 3.67739 50.7141 4.47754 50.7666C5.45457 50.8306 6.2438 51.4028 6.84082 52.0693C7.43465 52.7323 7.78941 53.4356 7.89844 53.6543V53.6553C8.34966 54.555 8.47423 55.3369 8.48926 56.1758C8.4969 56.6036 8.47674 57.0425 8.45508 57.5303C8.43363 58.0132 8.41166 58.5374 8.4209 59.1123V59.1143C8.42723 59.4297 8.47 61.0382 8.93164 63.0576C9.36328 64.9458 10.1685 67.2288 11.6816 69.1494L11.9941 69.5283C15.204 73.259 19.9849 73.7953 21.998 74.0264V74.0273C26.8503 74.5879 30.5464 73.042 32.8027 72.0674C35.9228 70.7215 38.9575 69.4229 40.8994 66.0908C43.0928 62.3237 42.5019 58.3471 42.1396 56.6729L42.0068 56.1035L41.9209 55.7686C40.9978 52.3509 39.0395 50.1666 37.6719 48.6699V48.6689L37.2588 48.2305C35.1924 46.0967 33.0833 44.8428 29.8711 43.0869C26.153 41.0514 24.0574 40.0431 22.3281 39.2275C20.605 38.4149 19.2618 37.8011 17.0283 36.5479C10.8377 33.071 7.25786 30.985 4.95117 26.6514L4.80957 26.3857C3.10395 23.0325 3.00524 20.0271 2.99414 19.374V19.373C2.87065 12.6806 7.27236 8.0386 8.32129 6.93457ZM90.8418 1.09473C91.4594 1.21142 92.1115 1.35675 92.7891 1.53906V1.54004C93.3863 1.70343 95.8 2.37539 98.7217 3.95898C101.177 5.28894 102.828 6.19199 104.32 8.06348L104.321 8.06445C104.869 8.74863 105.556 9.6127 106.041 10.6182C106.523 11.6177 106.787 12.722 106.526 13.8926C106.336 14.7461 105.86 15.6754 105.198 16.3848C104.536 17.095 103.732 17.5393 102.891 17.541C102.025 17.5427 101.272 17.0768 100.675 16.499C100.083 15.926 99.7009 15.2968 99.584 15.0957H99.583C99.1385 14.3279 99.0638 13.766 99.0176 12.9951C98.9697 12.1981 98.9554 11.1905 98.584 9.65234V9.65137L98.4473 9.09766C98.1065 7.7506 97.5795 6.03251 96.2764 4.45117C94.4455 2.22929 92.0352 1.43183 90.8418 1.09473Z" fill="#21441E" stroke="black"/>
</svg>
