<svg width="198" height="198" viewBox="0 0 198 198" fill="none" xmlns="http://www.w3.org/2000/svg">
<g clip-path="url(#clip0_27_186)">
<path d="M217.8 -19.8H-19.8V217.8H217.8V-19.8Z" fill="white"/>
<path d="M217.8 -19.8H-19.8V217.8H217.8V-19.8Z" fill="white"/>
<path d="M66.0804 120.648C68.4832 119.367 69.6362 117.371 71.4945 114.06C72.8495 111.645 72.8248 111.146 75.0028 107.166C76.0052 105.33 76.6858 104.198 77.9419 103.049C78.7669 102.294 79.9445 101.24 81.8111 100.784C82.3989 100.64 84.7584 100.062 86.9674 101.349C88.6689 102.341 89.3372 103.886 90.0611 105.569C90.5809 106.774 91.3852 108.702 91.0924 111.231C90.9686 112.318 90.684 114.78 88.7721 116.428C86.7261 118.19 83.6756 118.274 83.3559 118.28C82.1597 118.299 81.3677 118.06 80.3137 118.59C80.0704 118.711 78.6988 119.4 78.6184 120.648C78.5524 121.663 79.3794 122.397 79.4392 122.449C80.8603 123.676 83.3683 122.752 84.183 122.449C86.0949 121.743 87.2582 120.551 87.9491 119.825C90.5747 117.068 91.2801 113.918 91.509 112.827C91.7627 111.623 92.1999 109.412 91.509 106.704C90.9336 104.447 89.8569 102.948 89.2918 102.174C88.3699 100.916 87.0725 99.1486 84.6491 98.1091C81.7451 96.8634 79.07 97.4636 78.3049 97.6451C74.6831 98.5092 72.5917 101.083 71.4965 102.432C70.3395 103.855 69.3495 105.971 67.3695 110.206C65.9257 113.293 65.4761 114.58 63.9127 116.067C63.0114 116.927 61.5842 118.245 59.4268 118.383C57.4282 118.509 55.9123 117.552 55.2997 117.096C53.4084 115.688 52.8557 113.65 52.5669 112.516C50.8942 105.973 55.9205 100.05 56.1784 99.7529C58.0862 97.5687 60.0827 96.521 62.2648 95.3804C65.7319 93.5634 66.9735 93.7861 73.7075 91.6741C78.5317 90.1623 80.9964 89.3703 83.6694 87.7121C86.1898 86.1446 88.671 84.6059 90.3231 81.4338C90.7624 80.5923 92.6166 76.8035 91.4595 72.1196C91.1852 71.0058 90.4179 68.0894 87.6934 65.7382C86.9282 65.0761 84.4284 62.9847 80.6788 62.96C77.3375 62.9352 75.0214 64.5708 74.3345 65.0699C72.5711 66.3507 71.6925 67.8811 70.0012 70.8862C67.9429 74.5471 68.1532 75.3824 66.2372 78.3978C64.5356 81.0729 63.624 82.4651 61.7492 83.2859C61.5883 83.3561 57.8923 84.9071 55.0955 82.8755C53.4641 81.6896 52.9629 79.8869 52.6205 78.6556C52.371 77.7584 51.9812 76.2941 52.4659 74.5368C52.6185 73.9779 52.9939 72.6166 54.219 71.606C55.1368 70.8491 56.1454 70.6057 56.9002 70.4201C58.4966 70.0344 58.9648 70.3932 59.8909 69.8549C60.1239 69.7209 61.3387 68.9763 61.3367 67.8481C61.3346 66.7488 60.1796 65.8599 59.171 65.6351C57.7603 65.3195 56.5496 66.2868 55.8195 66.8705C54.7676 67.7099 54.2602 68.6442 53.5487 69.9581C52.6865 71.5524 52.3194 72.8682 52.2287 73.1982C51.7172 75.0978 51.7295 76.6302 51.744 77.1624C51.7646 77.9399 51.8038 79.295 52.3627 80.8151C53.5528 84.0573 56.232 85.6702 56.6424 85.9094C57.1766 86.2209 60.2435 87.941 63.9148 86.9902C66.8559 86.2271 68.5121 84.1852 69.9497 82.4094C71.28 80.7697 71.0119 80.5346 74.0767 74.7946C75.9206 71.342 77.0199 69.5476 79.0288 67.8997C80.685 66.5384 81.7802 66.2476 82.4855 66.1486C84.8265 65.8269 86.6807 67.118 87.2809 67.5387C89.8941 69.3641 90.5809 72.1897 90.8407 73.2519C91.1047 74.3409 91.4966 76.6797 90.5829 79.3259C89.7249 81.8133 88.1677 83.2426 86.6621 84.6245C84.5068 86.6045 82.4525 87.5986 80.4725 88.535C78.7999 89.3291 77.3499 89.8736 73.2022 91.1606C64.8429 93.7552 64.7996 93.3922 62.4731 94.5039C59.9445 95.7125 57.1003 97.1109 54.7882 100.217C52.1585 103.746 51.7997 107.357 51.7399 108.038C51.6367 109.226 51.1438 114.935 55.2007 118.792C55.7947 119.357 58.3543 121.793 62.0606 121.725C62.438 121.719 64.1747 121.661 66.0845 120.646L66.0804 120.648Z" fill="#21441E"/>
<path d="M100.931 82.2131C99.7969 82.2131 98.7945 82.0007 97.92 81.5778C97.0497 81.155 96.3649 80.5342 95.8658 79.7133C95.3708 78.8945 95.1233 77.8983 95.1233 76.7268C95.1233 75.545 95.379 74.553 95.8905 73.7486C96.402 72.9463 97.0909 72.3378 97.9613 71.9253C98.8358 71.5087 99.8093 71.2983 100.882 71.2983C101.925 71.2983 103.019 71.5025 104.157 71.9088L104.083 72.9566C103.736 72.7586 103.4 72.5503 103.076 72.3296C102.757 72.111 102.449 71.9233 102.152 71.7686C101.859 71.616 101.567 71.5376 101.27 71.5376C100.323 71.5376 99.4999 71.748 98.8028 72.1646C98.1036 72.5833 97.5612 73.1793 97.1775 73.9548C96.7919 74.7303 96.6 75.6543 96.6 76.7268C96.6 77.4652 96.7197 78.1541 96.963 78.7976C97.2044 79.437 97.5447 79.9918 97.986 80.4641C98.4315 80.9385 98.9472 81.3097 99.537 81.5778C100.131 81.8418 100.77 81.9738 101.459 81.9738C101.74 81.9738 102.022 81.8955 102.309 81.7346C102.6 81.5696 102.895 81.3798 103.192 81.1653C103.489 80.9467 103.773 80.7611 104.05 80.6126L104.157 81.6933C103.002 82.0398 101.925 82.2131 100.931 82.2131Z" fill="#21441E"/>
<path d="M107.36 81.9903H105.883L110.025 71.6118H111.502L115.651 81.9903H114.843C114.754 81.419 114.649 80.8229 114.529 80.2001C114.414 79.5793 114.216 78.9254 113.935 78.2366L113.614 77.4033H109.192L107.36 81.9903ZM111.394 71.8593L109.266 77.1971H113.523L111.394 71.8593Z" fill="#21441E"/>
<path d="M117.927 81.9903H117.027C117.176 81.3963 117.269 80.8271 117.308 80.2826C117.345 79.7381 117.366 79.1399 117.366 78.4841V71.6118H118.521L125.22 81.3716V74.8953C125.22 74.3735 125.195 73.8228 125.145 73.2453C125.096 72.6678 125.001 72.1233 124.865 71.6118H125.764C125.636 72.1233 125.545 72.6678 125.492 73.2453C125.436 73.8228 125.409 74.3735 125.409 74.8953V81.9903H124.098L117.572 72.4533V78.4841C117.572 79.0904 117.59 79.6783 117.63 80.2496C117.673 80.8168 117.772 81.3963 117.927 81.9903Z" fill="#21441E"/>
<path d="M131.072 81.9903H127.607V71.6118H131.336C132.804 71.6118 133.959 72.0223 134.801 72.8411C135.647 73.6558 136.071 74.9118 136.071 76.6113C136.071 77.5683 135.931 78.3913 135.651 79.0781C135.374 79.7608 135.003 80.3156 134.537 80.7446C134.069 81.1736 133.535 81.4912 132.936 81.6933C132.342 81.8913 131.72 81.9903 131.072 81.9903ZM129.092 71.8346V81.7676H130.404C131.035 81.7676 131.608 81.6892 132.12 81.5283C132.631 81.3633 133.07 81.089 133.44 80.7033C133.813 80.3197 134.096 79.7938 134.289 79.1276C134.487 78.4634 134.586 77.624 134.586 76.6113C134.586 74.9345 134.267 73.7156 133.629 72.9566C132.996 72.1976 132.006 71.8243 130.659 71.8346H129.092Z" fill="#21441E"/>
<path d="M139.366 81.9903H137.881V71.6118H139.366V81.9903Z" fill="#21441E"/>
<path d="M99.7765 118.668H98.2997V108.496C97.6892 108.496 97.1881 108.525 96.7982 108.578C96.4064 108.634 96.0557 108.725 95.7422 108.851C95.4329 108.972 95.0926 109.129 94.7192 109.321V108.29H103.373V109.321C102.994 109.129 102.643 108.972 102.326 108.851C102.006 108.725 101.651 108.634 101.261 108.578C100.87 108.525 100.375 108.496 99.7765 108.496V118.668Z" fill="#21441E"/>
<path d="M108.946 118.891C108.164 118.891 107.463 118.755 106.842 118.487C106.219 118.212 105.728 117.806 105.365 117.266C105.002 116.721 104.821 116.04 104.821 115.22V108.29H106.314V115.946C106.314 116.628 106.44 117.171 106.694 117.571C106.951 117.967 107.281 118.253 107.684 118.429C108.09 118.6 108.511 118.685 108.946 118.685C109.375 118.685 109.787 118.6 110.183 118.429C110.579 118.253 110.901 117.967 111.149 117.571C111.4 117.171 111.528 116.628 111.528 115.946V108.29H113.005V115.22C113.005 116.04 112.825 116.721 112.469 117.266C112.116 117.806 111.635 118.212 111.025 118.487C110.414 118.755 109.721 118.891 108.946 118.891Z" fill="#21441E"/>
<path d="M118.626 118.668H115.161V108.29H118.89C120.358 108.29 121.513 108.7 122.355 109.519C123.2 110.333 123.625 111.59 123.625 113.289C123.625 114.246 123.485 115.069 123.204 115.756C122.928 116.438 122.557 116.993 122.091 117.422C121.622 117.851 121.088 118.169 120.49 118.371C119.896 118.569 119.273 118.668 118.626 118.668ZM116.646 108.512V118.445H117.957C118.589 118.445 119.162 118.367 119.673 118.206C120.185 118.041 120.624 117.767 120.993 117.381C121.367 116.997 121.649 116.471 121.843 115.805C122.041 115.141 122.14 114.302 122.14 113.289C122.14 111.612 121.82 110.393 121.183 109.634C120.55 108.875 119.56 108.502 118.213 108.512H116.646Z" fill="#21441E"/>
<path d="M126.919 118.668H125.434V108.29H126.919V118.668Z" fill="#21441E"/>
<path d="M133.454 118.915C132.645 118.915 131.938 118.775 131.334 118.495C130.733 118.21 130.23 117.816 129.824 117.315C129.422 116.81 129.119 116.232 128.916 115.582C128.718 114.929 128.619 114.238 128.619 113.512C128.619 112.468 128.797 111.532 129.156 110.707C129.512 109.882 130.049 109.234 130.764 108.76C131.478 108.281 132.375 108.042 133.454 108.042C134.526 108.042 135.419 108.281 136.135 108.76C136.849 109.234 137.385 109.882 137.744 110.707C138.107 111.532 138.288 112.468 138.288 113.512C138.288 114.238 138.185 114.929 137.983 115.582C137.779 116.232 137.474 116.81 137.067 117.315C136.665 117.816 136.164 118.21 135.566 118.495C134.966 118.775 134.262 118.915 133.454 118.915ZM133.454 118.709C134.069 118.709 134.592 118.565 135.021 118.272C135.45 117.975 135.793 117.579 136.053 117.084C136.317 116.585 136.506 116.026 136.622 115.409C136.742 114.795 136.803 114.161 136.803 113.512C136.803 112.868 136.742 112.237 136.622 111.614C136.506 110.987 136.317 110.422 136.053 109.915C135.793 109.403 135.45 108.999 135.021 108.702C134.592 108.401 134.069 108.248 133.454 108.248C132.81 108.248 132.274 108.401 131.845 108.702C131.416 108.999 131.072 109.403 130.814 109.915C130.56 110.422 130.377 110.987 130.261 111.614C130.15 112.237 130.096 112.868 130.096 113.512C130.096 114.161 130.156 114.795 130.278 115.409C130.403 116.026 130.599 116.585 130.863 117.084C131.127 117.579 131.47 117.975 131.895 118.272C132.317 118.565 132.837 118.709 133.454 118.709Z" fill="#21441E"/>
</g>
<defs>
<clipPath id="clip0_27_186">
<rect width="198" height="198" fill="white"/>
</clipPath>
</defs>
</svg>
